Coordinates
version=1
nRows=24
nColumns=22
inDegrees=yes

Units are S.I. units (second, meters, Newtons, ...)
If the header above contains a line with 'inDegrees', this indicates whether rotational values are in degrees (yes) or radians (no).

endheader
time	pelvis_tilt	pelvis_list	pelvis_rotation	pelvis_tx	pelvis_ty	pelvis_tz	hip_flexion_r	hip_adduction_r	hip_rotation_r	knee_angle_r	ankle_angle_r	subtalar_angle_r	hip_flexion_l	hip_adduction_l	hip_rotation_l	knee_angle_l	ankle_angle_l	subtalar_angle_l	lumbar_extension	lumbar_bending	lumbar_rotation
      1.32000000	    -12.48072060	      2.81940725	    -37.60175765	     -1.09217105	      0.96009216	     -0.21212433	     18.99368296	     11.53598362	      0.36678977	    -24.89055357	     21.97392948	    -12.27383820	     40.62032232	     -7.96153103	      0.99730293	    -58.60714116	     14.69491488	      0.36722746	     -2.09676039	      6.11664304	      7.06663339
      1.33000000	    -12.20396787	      2.92601148	    -37.85319374	     -1.09011105	      0.96055442	     -0.20988405	     18.54627185	     11.34482366	      0.59506459	    -24.78332844	     22.11392859	    -12.26411833	     40.90990415	     -7.76375484	      0.81188137	    -58.74733733	     14.91278601	      0.01231258	     -2.30214823	      5.87864088	      7.26855801
      1.34000000	    -11.95503283	      3.03308150	    -38.06656453	     -1.08797995	      0.96096998	     -0.20768149	     18.12446815	     11.16043038	      0.82019429	    -24.67286060	     22.22561849	    -12.24479237	     41.20277237	     -7.54186077	      0.64990627	    -58.68774928	     15.12710730	     -0.35550180	     -2.48535798	      5.65994086	      7.41554339
      1.35000000	    -11.78361227	      3.17184751	    -38.26094773	     -1.08586164	      0.96118368	     -0.20551157	     17.82033678	     10.99084715	      1.00390184	    -24.61088101	     22.36231717	    -12.24567564	     41.57052796	     -7.32292089	      0.49098237	    -58.44829035	     15.39222325	     -0.51078112	     -2.58674826	      5.46569355	      7.56053230
      1.36000000	    -11.64715278	      3.30971941	    -38.42695615	     -1.08371718	      0.96130712	     -0.20337239	     17.54875755	     10.84069951	      1.19288182	    -24.54932978	     22.48613665	    -12.24650682	     41.94912961	     -7.09198492	      0.36230372	    -58.02456597	     15.61464452	     -0.62394075	     -2.67080542	      5.29745298	      7.66288004
      1.37000000	    -11.55066217	      3.44451328	    -38.57168860	     -1.08152687	      0.96132612	     -0.20124864	     17.31440923	     10.71178010	      1.35780155	    -24.49501437	     22.61232232	    -12.25156222	     42.33644412	     -6.85844518	      0.26190659	    -57.42292679	     15.79688418	     -0.65980427	     -2.73252115	      5.16140480	      7.74366957
      1.38000000	    -11.47781078	      3.57460739	    -38.69764845	     -1.07927434	      0.96125798	     -0.19912637	     17.09927076	     10.59719144	      1.51309082	    -24.44782848	     22.74416776	    -12.25880368	     42.71578322	     -6.61762662	      0.18446147	    -56.65702664	     15.91910792	     -0.61880246	     -2.78633968	      5.04614619	      7.80437791
      1.39000000	    -11.41905965	      3.69663715	    -38.80972282	     -1.07692707	      0.96111939	     -0.19699124	     16.88730443	     10.49236071	      1.65464134	    -24.40175338	     22.88542599	    -12.26724011	     43.07290155	     -6.36924098	      0.12824007	    -55.73959861	     15.97644877	     -0.49149382	     -2.84097979	      4.95026877	      7.85355787
      1.40000000	    -11.36657998	      3.80197965	    -38.90995533	     -1.07446615	      0.96092806	     -0.19481681	     16.66203396	     10.40036256	      1.78296127	    -24.35341074	     23.03483961	    -12.27636227	     43.39390104	     -6.11943437	      0.09285387	    -54.68508025	     15.97002669	     -0.27274926	     -2.90559679	      4.87278348	      7.89368048
      1.41000000	    -11.31569810	      3.88603510	    -38.99850380	     -1.07186318	      0.96069521	     -0.19260909	     16.41186279	     10.31995584	      1.90228017	    -24.29662091	     23.19040777	    -12.28712526	     43.67295014	     -5.87053819	      0.07519431	    -53.50978351	     15.91031625	      0.01173298	     -2.98479264	      4.82004190	      7.92926149
      1.42000000	    -11.26797673	      3.94290389	    -39.08111195	     -1.06912542	      0.96042257	     -0.19033317	     16.13116925	     10.26039669	      2.01907477	    -24.22835898	     23.35045434	    -12.29798816	     43.90758784	     -5.63562712	      0.07480888	    -52.23054504	     15.81452939	      0.33979927	     -3.07898627	      4.79306894	      7.96519781
      1.43000000	    -11.22182780	      3.98107587	    -39.16165066	     -1.06624848	      0.96010751	     -0.18798831	     15.82716100	     10.21276875	      2.12822626	    -24.15556963	     23.52310642	    -12.30742377	     44.10105519	     -5.41377707	      0.07761858	    -50.85777132	     15.69301987	      0.66941763	     -3.18142775	      4.78426289	      8.00600083
      1.44000000	    -11.18342380	      3.97324679	    -39.24333712	     -1.06324715	      0.95976202	     -0.18555231	     15.48044634	     10.20899048	      2.25429037	    -24.06647743	     23.69464607	    -12.29818559	     44.24924654	     -5.23409029	      0.09305918	    -49.41916264	     15.60565449	      1.07168435	     -3.30829652	      4.82071419	      8.06384190
      1.45000000	    -11.16128715	      3.98841593	    -39.32041896	     -1.06011127	      0.95932016	     -0.18306500	     15.16108340	     10.18621957	      2.34415298	    -23.99047677	     23.90381080	    -12.29217745	     44.39969735	     -5.05363711	      0.07883872	    -47.91247039	     15.46846379	      1.32880830	     -3.39411863	      4.84753637	      8.12582153
      1.46000000	    -11.13747899	      3.94636919	    -39.40705443	     -1.05687349	      0.95888480	     -0.18046336	     14.77889794	     10.21395562	      2.46281223	    -23.89044738	     24.10455284	    -12.24048126	     44.49551542	     -4.93115431	      0.05737668	    -46.37099852	     15.39777768	      1.70760691	     -3.52318060	      4.91786671	      8.20653761
      1.47000000	    -11.13772409	      3.94026113	    -39.49707111	     -1.05352715	      0.95833184	     -0.17782218	     14.44657053	     10.22055337	      2.55976917	    -23.81670750	     24.34265307	    -12.21615939	     44.61642601	     -4.81033926	     -0.00923070	    -44.79541827	     15.28969594	      1.95448302	     -3.59829717	      4.97605115	      8.29946990
      1.48000000	    -11.14097495	      3.89783855	    -39.59860952	     -1.05009512	      0.95776847	     -0.17508383	     14.07632312	     10.26128914	      2.67340742	    -23.72815196	     24.56623809	    -12.16683027	     44.70638240	     -4.73875245	     -0.10303160	    -43.21369923	     15.21033235	      2.27103744	     -3.69716723	      5.06086990	      8.41495452
      1.49000000	    -11.15804276	      3.84284675	    -39.70406033	     -1.04656038	      0.95715612	     -0.17228346	     13.70315827	     10.32120605	      2.79915290	    -23.64565496	     24.77863155	    -12.10713435	     44.79127342	     -4.69415858	     -0.21375267	    -41.63717488	     15.13341559	      2.63684837	     -3.79240458	      5.16887259	      8.53263388
      1.50000000	    -11.18665860	      3.80846866	    -39.82787890	     -1.04291533	      0.95647922	     -0.16939324	     13.34047734	     10.36936165	      2.92642226	    -23.55789932	     25.00492347	    -12.07162816	     44.88617183	     -4.67174705	     -0.39674972	    -40.07391050	     15.00412260	      2.95623139	     -3.85480744	      5.26545588	      8.66835353
      1.51000000	    -11.21624135	      3.76254870	    -39.96067317	     -1.03916680	      0.95577980	     -0.16641843	     12.96002820	     10.42767636	      3.06529016	    -23.46811628	     25.22007849	    -12.03212760	     44.96361590	     -4.67097672	     -0.59873270	    -38.53589972	     14.85991841	      3.30875376	     -3.92353359	      5.36930814	      8.81082148
      1.52000000	    -11.25310591	      3.71833279	    -40.10232791	     -1.03530418	      0.95503880	     -0.16337484	     12.57613739	     10.48640005	      3.21034911	    -23.37685306	     25.43333940	    -11.99258337	     45.03826897	     -4.68410268	     -0.81941659	    -37.03370298	     14.68688737	      3.66201751	     -3.98297742	      5.47785205	      8.95362302
      1.53000000	    -11.28623690	      3.66961762	    -40.24860436	     -1.03132903	      0.95426924	     -0.16026529	     12.17999699	     10.54283391	      3.35961041	    -23.29087805	     25.64604629	    -11.94280188	     45.10040011	     -4.70693743	     -1.05271087	    -35.58377902	     14.50681888	      4.03263321	     -4.04913670	      5.58586427	      9.09621375
      1.54000000	    -11.32415784	      3.61200630	    -40.39239779	     -1.02723902	      0.95346603	     -0.15709912	     11.77267882	     10.60488598	      3.50779271	    -23.20553456	     25.85786655	    -11.87189339	     45.15471356	     -4.73412970	     -1.25585044	    -34.19195677	     14.35732343	      4.41605698	     -4.11857657	      5.70471929	      9.22341109
      1.55000000	    -11.37758999	      3.56954241	    -40.54241573	     -1.02303936	      0.95259526	     -0.15386764	     11.37670975	     10.66016799	      3.65643392	    -23.11329519	     26.07709428	    -11.81166106	     45.23582749	     -4.77443404	     -1.48826064	    -32.88846938	     14.17649828	      4.67636887	     -4.16067637	      5.82167351	      9.35345697
